/* XPM */
static const char *icon_xpm[] = {
/* columns rows colors chars-per-pixel */
"128 128 2 1 ",
"  c #09244B",
". c None",
/* pixels */
"................................................................................................................................",
"................................................................................................................................",
"................................................................................................................................",
"................................................................................................................................",
"................................................................................................................................",
"................................................................................................................................",
"................................................................................................................................",
"................................................................................................................................",
"................................................................................................................................",
"................................................................................................................................",
"................................................................................................................................",
".......................................................                  .......................................................",
"..................................................                            ..................................................",
"...............................................                                  ...............................................",
"............................................                                        ............................................",
"..........................................                                            ..........................................",
"........................................                                                ........................................",
"......................................                                                    ......................................",
"....................................                                                        ....................................",
"...................................                                                          ...................................",
".................................                                                              .................................",
"................................                                                                ................................",
"...............................                                                                  ...............................",
".............................                                                                      .............................",
"............................                                                                        ............................",
"...........................                                                                          ...........................",
"..........................                                                                            ..........................",
".........................                                    ......                                    .........................",
"........................                                    ........                                    ........................",
".......................                                    ..........                                    .......................",
".......................                                   ............                                   .......................",
"......................                                   ..............                                   ......................",
".....................                                   ................                                   .....................",
"....................                                   ..................                                   ....................",
"....................                                  ....................                                  ....................",
"...................                                   ....................                                   ...................",
"..................                                   ......................                                   ..................",
"..................                                   ......................                                   ..................",
".................                                    ......................                                    .................",
".................                                     ....................                                     .................",
"................                                      .........  .........                                      ................",
"................                                       .......    .......                                       ................",
"...............                                          ...        ...                                          ...............",
"...............                                                                                                  ...............",
"..............                                                                                                    ..............",
"..............                                                                                                    ..............",
"..............                                                                                                    ..............",
".............                                                                                                      .............",
".............                                                                                                      .............",
".............                                                                                                      .............",
"............                                                                                                        ............",
"............                                                                                                        ............",
"............                                                                                                        ............",
"............                        ...                                                  ...                        ............",
"............                      .......                                              .......                      ............",
"...........                      .........                                            .........                      ...........",
"...........                     ..........                                            ..........                     ...........",
"...........                    ............                                          ............                    ...........",
"...........                   .............                                          .............                   ...........",
"...........                  ..............                                          ..............                  ...........",
"...........                 ..............                                            ..............                 ...........",
"...........                ...............                                            ...............                ...........",
"...........                ..............                                              ..............                ...........",
"...........                .............                                                .............                ...........",
"...........                .............                                                .............                ...........",
"...........                ..............                                              ..............                ...........",
"...........                ...............                                            ...............                ...........",
"...........                 ..............                                            ..............                 ...........",
"...........                  ..............                                          ..............                  ...........",
"...........                   .............                                          .............                   ...........",
"...........                    ............                                          ............                    ...........",
"...........                     ..........                                            ..........                     ...........",
"...........                      .........                                            .........                      ...........",
"............                      .......                                              .......                      ............",
"............                        ...                                                  ...                        ............",
"............                                                                                                        ............",
"............                                                                                                        ............",
"............                                                                                                        ............",
".............                                                                                                      .............",
".............                                                                                                      .............",
".............                                                                                                      .............",
"..............                                                                                                    ..............",
"..............                                                                                                    ..............",
"..............                                                                                                    ..............",
"...............                                                                                                  ...............",
"...............                                          ...        ..                                           ...............",
"................                                       .......    ......                                        ................",
"................                                      .........  ........                                       ................",
".................                                     ....................                                     .................",
".................                                    .....................                                     .................",
"..................                                   ......................                                   ..................",
"..................                                   ......................                                   ..................",
"...................                                   ....................                                   ...................",
"....................                                  ....................                                  ....................",
"....................                                   ..................                                   ....................",
".....................                                   ................                                   .....................",
"......................                                   ..............                                   ......................",
".......................                                   ............                                   .......................",
".......................                                    ..........                                    .......................",
"........................                                    ........                                    ........................",
".........................                                    ......                                    .........................",
"..........................                                                                            ..........................",
"...........................                                                                          ...........................",
"............................                                                                        ............................",
".............................                                                                      .............................",
"...............................                                                                  ...............................",
"................................                                                                ................................",
".................................                                                              .................................",
"...................................                                                          ...................................",
"....................................                                                        ....................................",
"......................................                                                    ......................................",
"........................................                                                ........................................",
"..........................................                                            ..........................................",
"............................................                                        ............................................",
"...............................................                                  ...............................................",
"..................................................                            ..................................................",
".......................................................                  .......................................................",
"................................................................................................................................",
"................................................................................................................................",
"................................................................................................................................",
"................................................................................................................................",
"................................................................................................................................",
"................................................................................................................................",
"................................................................................................................................",
"................................................................................................................................",
"................................................................................................................................",
"................................................................................................................................",
"................................................................................................................................"
};
